<mxfile host="Electron" modified="2024-06-04T10:40:29.994Z" agent="Mozilla/5.0 (X11; Linux x86_64) AppleWebKit/537.36 (KHTML, like Gecko) draw.io/24.2.5 Chrome/120.0.6099.109 Electron/28.1.0 Safari/537.36" etag="lKNbx7z5R_VEbeaCFDdK" version="24.2.5" type="device">
  <diagram name="Page-1" id="p2-3CebT68L_AA7gfQsw">
    <mxGraphModel dx="1434" dy="835" grid="1" gridSize="10" guides="1" tooltips="1" connect="1" arrows="1" fold="1" page="1" pageScale="1" pageWidth="850" pageHeight="1100" math="0" shadow="0">
      <root>
        <mxCell id="0" />
        <mxCell id="1" parent="0" />
        <mxCell id="uRYXj3FkFpivrwvbwtSx-9" value="" style="rounded=0;whiteSpace=wrap;html=1;shadow=0;strokeColor=#6c8ebf;strokeWidth=1;fontFamily=Ubuntu;fontSize=16;fontStyle=0;fillColor=#dae8fc;" vertex="1" parent="1">
          <mxGeometry x="440" y="60" width="220" height="260" as="geometry" />
        </mxCell>
        <mxCell id="uRYXj3FkFpivrwvbwtSx-1" value="" style="rounded=0;whiteSpace=wrap;html=1;shadow=0;strokeColor=#6c8ebf;strokeWidth=1;fontFamily=Ubuntu;fontSize=16;fontStyle=0;fillColor=#dae8fc;" vertex="1" parent="1">
          <mxGeometry x="440" y="400" width="220" height="220" as="geometry" />
        </mxCell>
        <mxCell id="uRYXj3FkFpivrwvbwtSx-18" style="edgeStyle=orthogonalEdgeStyle;rounded=1;orthogonalLoop=1;jettySize=auto;html=1;entryX=1;entryY=0.5;entryDx=0;entryDy=0;shadow=0;strokeColor=#6c8ebf;strokeWidth=2;fontFamily=Ubuntu;fontSize=14;fontStyle=0;endArrow=block;endFill=1;fillColor=#dae8fc;exitX=1;exitY=0.5;exitDx=0;exitDy=0;" edge="1" parent="1" source="uRYXj3FkFpivrwvbwtSx-2" target="uRYXj3FkFpivrwvbwtSx-11">
          <mxGeometry relative="1" as="geometry">
            <Array as="points">
              <mxPoint x="720" y="475" />
              <mxPoint x="720" y="145" />
            </Array>
          </mxGeometry>
        </mxCell>
        <mxCell id="uRYXj3FkFpivrwvbwtSx-2" value="2" style="rounded=0;whiteSpace=wrap;html=1;shadow=0;strokeColor=#264653;strokeWidth=1;fontFamily=Ubuntu;fontSize=16;fontStyle=0;fillColor=#f4a261;" vertex="1" parent="1">
          <mxGeometry x="460" y="460" width="180" height="30" as="geometry" />
        </mxCell>
        <mxCell id="uRYXj3FkFpivrwvbwtSx-3" value="1" style="rounded=0;whiteSpace=wrap;html=1;shadow=0;strokeColor=#264653;strokeWidth=1;fontFamily=Ubuntu;fontSize=16;fontStyle=0;fillColor=#e9c46a;" vertex="1" parent="1">
          <mxGeometry x="460" y="420" width="180" height="30" as="geometry" />
        </mxCell>
        <mxCell id="uRYXj3FkFpivrwvbwtSx-19" style="edgeStyle=orthogonalEdgeStyle;rounded=1;orthogonalLoop=1;jettySize=auto;html=1;entryX=1;entryY=0.5;entryDx=0;entryDy=0;shadow=0;strokeColor=#6c8ebf;strokeWidth=2;fontFamily=Ubuntu;fontSize=14;fontStyle=0;endArrow=block;endFill=1;fillColor=#dae8fc;exitX=1;exitY=0.5;exitDx=0;exitDy=0;" edge="1" parent="1" source="uRYXj3FkFpivrwvbwtSx-4" target="uRYXj3FkFpivrwvbwtSx-12">
          <mxGeometry relative="1" as="geometry">
            <Array as="points">
              <mxPoint x="740" y="515" />
              <mxPoint x="740" y="195" />
            </Array>
          </mxGeometry>
        </mxCell>
        <mxCell id="uRYXj3FkFpivrwvbwtSx-4" value="3" style="rounded=0;whiteSpace=wrap;html=1;shadow=0;strokeColor=#264653;strokeWidth=1;fontFamily=Ubuntu;fontSize=16;fontStyle=0;fillColor=#e76f51;" vertex="1" parent="1">
          <mxGeometry x="460" y="500" width="180" height="30" as="geometry" />
        </mxCell>
        <mxCell id="uRYXj3FkFpivrwvbwtSx-20" style="edgeStyle=orthogonalEdgeStyle;rounded=1;orthogonalLoop=1;jettySize=auto;html=1;entryX=1;entryY=0.5;entryDx=0;entryDy=0;shadow=0;strokeColor=#6c8ebf;strokeWidth=2;fontFamily=Ubuntu;fontSize=14;fontStyle=0;endArrow=block;endFill=1;fillColor=#dae8fc;exitX=1;exitY=0.5;exitDx=0;exitDy=0;" edge="1" parent="1" source="uRYXj3FkFpivrwvbwtSx-5" target="uRYXj3FkFpivrwvbwtSx-13">
          <mxGeometry relative="1" as="geometry">
            <Array as="points">
              <mxPoint x="760" y="555" />
              <mxPoint x="760" y="245" />
            </Array>
          </mxGeometry>
        </mxCell>
        <mxCell id="uRYXj3FkFpivrwvbwtSx-5" value="4" style="rounded=0;whiteSpace=wrap;html=1;shadow=0;strokeColor=#264653;strokeWidth=1;fontFamily=Ubuntu;fontSize=16;fontStyle=0;fillColor=#FFAEBC;" vertex="1" parent="1">
          <mxGeometry x="460" y="540" width="180" height="30" as="geometry" />
        </mxCell>
        <mxCell id="uRYXj3FkFpivrwvbwtSx-21" style="edgeStyle=orthogonalEdgeStyle;rounded=1;orthogonalLoop=1;jettySize=auto;html=1;entryX=1;entryY=0.5;entryDx=0;entryDy=0;shadow=0;strokeColor=#6c8ebf;strokeWidth=2;fontFamily=Ubuntu;fontSize=14;fontStyle=0;endArrow=block;endFill=1;fillColor=#dae8fc;exitX=1;exitY=0.5;exitDx=0;exitDy=0;" edge="1" parent="1" source="uRYXj3FkFpivrwvbwtSx-6" target="uRYXj3FkFpivrwvbwtSx-14">
          <mxGeometry relative="1" as="geometry">
            <Array as="points">
              <mxPoint x="780" y="595" />
              <mxPoint x="780" y="290" />
            </Array>
          </mxGeometry>
        </mxCell>
        <mxCell id="uRYXj3FkFpivrwvbwtSx-6" value="_" style="rounded=0;whiteSpace=wrap;html=1;shadow=0;strokeColor=#264653;strokeWidth=1;fontFamily=Ubuntu;fontSize=16;fontStyle=0;fillColor=#A0E7E5;" vertex="1" parent="1">
          <mxGeometry x="460" y="580" width="180" height="30" as="geometry" />
        </mxCell>
        <mxCell id="uRYXj3FkFpivrwvbwtSx-7" value="跳转表" style="text;html=1;align=center;verticalAlign=middle;whiteSpace=wrap;rounded=0;fontFamily=Ubuntu;fontSize=16;fontStyle=0;" vertex="1" parent="1">
          <mxGeometry x="495" y="360" width="110" height="30" as="geometry" />
        </mxCell>
        <mxCell id="uRYXj3FkFpivrwvbwtSx-10" value="" style="rounded=0;whiteSpace=wrap;html=1;shadow=0;strokeColor=#264653;strokeWidth=1;fontFamily=Ubuntu;fontSize=16;fontStyle=0;fillColor=#e9c46a;" vertex="1" parent="1">
          <mxGeometry x="460" y="80" width="180" height="40" as="geometry" />
        </mxCell>
        <mxCell id="uRYXj3FkFpivrwvbwtSx-11" value="" style="rounded=0;whiteSpace=wrap;html=1;shadow=0;strokeColor=#264653;strokeWidth=1;fontFamily=Ubuntu;fontSize=16;fontStyle=0;fillColor=#f4a261;" vertex="1" parent="1">
          <mxGeometry x="460" y="130" width="180" height="30" as="geometry" />
        </mxCell>
        <mxCell id="uRYXj3FkFpivrwvbwtSx-12" value="" style="rounded=0;whiteSpace=wrap;html=1;shadow=0;strokeColor=#264653;strokeWidth=1;fontFamily=Ubuntu;fontSize=16;fontStyle=0;fillColor=#e76f51;" vertex="1" parent="1">
          <mxGeometry x="460" y="170" width="180" height="50" as="geometry" />
        </mxCell>
        <mxCell id="uRYXj3FkFpivrwvbwtSx-13" value="" style="rounded=0;whiteSpace=wrap;html=1;shadow=0;strokeColor=#264653;strokeWidth=1;fontFamily=Ubuntu;fontSize=16;fontStyle=0;fillColor=#FFAEBC;" vertex="1" parent="1">
          <mxGeometry x="460" y="230" width="180" height="30" as="geometry" />
        </mxCell>
        <mxCell id="uRYXj3FkFpivrwvbwtSx-14" value="" style="rounded=0;whiteSpace=wrap;html=1;shadow=0;strokeColor=#264653;strokeWidth=1;fontFamily=Ubuntu;fontSize=16;fontStyle=0;fillColor=#A0E7E5;" vertex="1" parent="1">
          <mxGeometry x="460" y="270" width="180" height="40" as="geometry" />
        </mxCell>
        <mxCell id="uRYXj3FkFpivrwvbwtSx-15" value="分支代码" style="text;html=1;align=center;verticalAlign=middle;whiteSpace=wrap;rounded=0;fontFamily=Ubuntu;fontSize=16;fontStyle=0;" vertex="1" parent="1">
          <mxGeometry x="495" y="20" width="110" height="30" as="geometry" />
        </mxCell>
        <mxCell id="uRYXj3FkFpivrwvbwtSx-16" style="edgeStyle=orthogonalEdgeStyle;rounded=1;orthogonalLoop=1;jettySize=auto;html=1;entryX=1;entryY=0.5;entryDx=0;entryDy=0;shadow=0;strokeColor=#6c8ebf;strokeWidth=2;fontFamily=Ubuntu;fontSize=14;fontStyle=0;endArrow=block;endFill=1;fillColor=#dae8fc;exitX=1;exitY=0.5;exitDx=0;exitDy=0;" edge="1" parent="1" source="uRYXj3FkFpivrwvbwtSx-3" target="uRYXj3FkFpivrwvbwtSx-10">
          <mxGeometry relative="1" as="geometry">
            <Array as="points">
              <mxPoint x="700" y="435" />
              <mxPoint x="700" y="100" />
            </Array>
          </mxGeometry>
        </mxCell>
      </root>
    </mxGraphModel>
  </diagram>
</mxfile>
